<?xml version="1.0" encoding="UTF-8" standalone="no"?>
<!-- Created with Inkscape (http://www.inkscape.org/) -->

<svg
   width="210mm"
   height="297mm"
   viewBox="0 0 210 297"
   version="1.1"
   id="svg1"
   xml:space="preserve"
   xmlns="http://www.w3.org/2000/svg"
   xmlns:svg="http://www.w3.org/2000/svg"><defs
     id="defs1" /><path
     style="fill:#000000;stroke-width:1.15501"
     d="m 36.796297,219.42956 c -2.708418,-0.74873 -7.406662,-3.55011 -10.978602,-6.54607 -8.853339,-7.42573 -13.896328,-17.3097 -14.788637,-28.98486 l -0.210758,-2.75759 0.389246,-3.36613 c 1.2001,-10.37829 5.523198,-19.30086 15.200018,-31.37173 2.671246,-3.33213 2.511998,-2.86913 1.459793,-4.24404 l -0.83792,-1.0949 0.116877,-1.8936 0.116878,-1.89357 2.331282,-3.32978 c 3.008847,-4.29754 4.172491,-6.28743 4.797282,-8.20366 l 0.505927,-1.55167 -0.507073,-0.64547 c -0.27889,-0.35501 -0.507074,-1.18079 -0.507074,-1.83505 v -1.18957 l 0.647282,-0.52229 c 1.251439,-1.00976 0.206404,-3.66956 -3.829355,-9.74637 -4.846817,-7.29807 -5.251036,-9.26857 -2.465273,-12.017824 l 1.106037,-1.091535 -6.251162,-9.34822 C 10.1722,68.47628 11.64199,70.167179 6.4506406,68.651905 4.4694952,68.073639 3.7849346,67.55581 3.7849346,66.635455 V 65.97416 l 1.542028,-1.286025 C 10.347996,60.500675 18.236892,59.003054 40.120221,58.083014 l 8.016714,-0.337047 19.330934,0.1523 c 22.883556,0.18029 33.922371,0.763668 42.697241,2.256462 8.27615,1.407953 8.73855,2.047272 5.31184,7.34397 C 94.939785,99.243 95.954596,97.564762 96.881794,98.25035 c 2.602493,1.92433 1.886142,5.16881 -2.642374,11.9677 -3.213445,4.82451 -3.940089,6.17016 -4.325757,8.01075 l -0.271667,1.29652 0.475336,0.42382 c 0.261427,0.23308 0.543381,0.98905 0.626561,1.6799 l 0.151224,1.25612 -0.473832,0.56378 -0.473841,0.56377 0.484824,1.45611 c 0.621465,1.86652 1.775487,3.89406 4.543755,7.98304 3.511712,5.18711 3.804606,6.88531 1.643426,9.52854 l -0.387047,0.47339 1.628519,1.97934 c 14.065319,17.09545 18.548979,30.64271 15.119809,45.68402 -2.52883,11.09217 -11.28108,21.9162 -22.136419,27.3764 l -2.103661,1.05813 -25.567627,0.0508 c -14.062193,0.0279 -25.931719,-0.0498 -26.376726,-0.17288 z m 52.944486,-2.32626 c 10.196006,-4.59158 18.701257,-15.22287 21.564107,-26.95439 l 0.71149,-2.91558 0.005,-5.48259 0.005,-5.48258 -0.75089,-3.02257 c -2.02083,-8.13442 -6.04783,-15.53543 -13.899248,-25.54455 l -2.489855,-3.17412 -9.491937,-0.0766 -9.491929,-0.0766 0.167797,0.79793 c 0.0923,0.43887 0.257914,1.40881 0.368058,2.15542 l 0.200263,1.35751 1.115122,0.99424 1.115125,0.99422 v 0.78015 0.78014 l 1.618202,1.72669 c 2.041491,2.17834 2.042811,2.10751 -0.06554,3.51874 l -1.198282,0.80207 -0.581743,-0.17881 c -0.319958,-0.0983 -1.138527,-0.82322 -1.81904,-1.61086 L 75.584765,155.0591 H 74.205118 72.82547 l -1.192596,-1.18446 c -2.115461,-2.10103 -2.345551,-3.12658 -1.017252,-4.53404 0.850507,-0.9012 0.939276,-1.43376 0.60329,-3.61931 l -0.205811,-1.33878 H 59.568024 48.122764 l -0.02363,0.50498 c -0.01299,0.27773 -0.135976,1.21068 -0.273293,2.07322 l -0.249666,1.56826 0.758754,0.99689 c 0.95844,1.25923 0.794318,3.51335 -0.255806,3.51335 -0.14486,0 -0.488228,0.38768 -0.76304,0.86149 l -0.499658,0.86149 -0.884127,0.19973 c -0.486268,0.10985 -1.265192,0.20912 -1.730938,0.2206 l -0.846814,0.0208 -1.345288,1.51492 c -1.570383,1.76841 -1.907193,1.8244 -3.6147,0.60095 -1.631804,-1.16919 -1.604359,-1.68294 0.180798,-3.38452 l 1.456384,-1.38822 v -1.01324 -1.01324 l 0.655725,-0.74326 c 0.360647,-0.40879 0.926265,-0.81981 1.256928,-0.91338 l 0.601206,-0.17012 0.345177,-2.07357 c 0.419729,-2.52138 1.321496,-2.18579 -6.158168,-2.29155 l -6.359671,-0.0899 -2.695247,3.44667 c -8.088314,10.34331 -11.939575,17.42157 -13.903479,25.55326 l -0.731744,3.02984 0.0067,5.4826 0.0067,5.48256 0.693918,2.81589 c 3.037194,12.32477 13.045444,24.37311 22.892138,27.5585 l 0.962479,0.31135 25.111379,0.0228 25.111382,0.0228 z M 31.57599,211.78785 C 24.807296,207.03372 15.9779,194.54246 17.267769,191.54552 l 0.192464,-0.4472 0.665737,0.0874 0.665736,0.0873 1.175241,3.02985 c 2.485146,6.40687 7.340753,12.52071 12.99995,16.36862 l 1.588997,1.08042 -0.09345,0.57849 c -0.154727,0.9578 -0.967854,0.80493 -2.886452,-0.54264 z m 59.376836,-0.047 -0.194814,-0.45263 3.36491,-2.82557 3.364909,-2.82557 2.051306,-2.56507 c 3.277913,-4.09888 5.432063,-8.33271 6.884063,-13.53022 l 0.64493,-2.30846 0.18158,-4.47263 0.18158,-4.47263 -0.3461,-1.96641 c -0.38888,-2.20938 -0.26098,-2.79479 0.6106,-2.79479 h 0.60018 l 0.39387,1.22637 0.39386,1.22637 0.0123,4.90547 0.0123,4.90546 -0.54195,2.59702 c -1.06602,5.10821 -3.24688,9.91163 -6.56246,14.45391 l -1.8766,2.57094 -3.801038,3.39053 -3.801044,3.39055 h -0.688709 c -0.378788,0 -0.776369,-0.20369 -0.883515,-0.45264 z M 41.084538,155.0791 c 1.012528,-1.27648 1.068909,-1.46266 0.442964,-1.46266 -0.580174,0 -2.238563,1.93582 -1.97908,2.31016 0.330659,0.47704 0.605977,0.32512 1.536116,-0.8475 z m 38.553181,0.90492 c 0.226568,-0.32684 -2.006038,-2.36758 -2.590192,-2.36758 h -0.486745 l 1.193396,1.29853 c 1.183593,1.28782 1.577084,1.51116 1.883541,1.06905 z m -34.10312,-2.65613 c 0,-0.15869 -0.372691,-0.28855 -0.828203,-0.28855 h -0.828202 l 0.200022,0.28855 c 0.110015,0.15871 0.482701,0.28855 0.828202,0.28855 0.345499,0 0.628181,-0.12984 0.628181,-0.28855 z m 28.642211,0 c -0.110015,-0.15869 -0.337065,-0.28855 -0.504562,-0.28855 -0.167497,0 -0.30454,0.12986 -0.30454,0.28855 0,0.15871 0.227054,0.28855 0.504562,0.28855 0.277507,0 0.414552,-0.12984 0.30454,-0.28855 z m -28.214156,-1.8904 1.237155,0.17259 -0.104413,-0.64638 -0.104413,-0.64639 -1.024981,-0.26092 -1.024979,-0.26094 -1.402326,0.3956 -1.402326,0.39556 -0.09946,0.62229 -0.09946,0.6223 1.39402,-0.28316 c 0.766712,-0.15573 1.950741,-0.20548 2.631177,-0.11055 z m 30.965103,0.0215 c 0,-0.2344 -0.350849,-0.63115 -0.779666,-0.88166 l -0.779665,-0.45548 -1.72855,0.088 -1.728551,0.0881 -0.107558,0.6774 -0.107557,0.67739 0.916659,-0.15889 c 0.504162,-0.0873 1.499212,-0.0501 2.211221,0.0829 1.919243,0.35856 2.103666,0.34822 2.103666,-0.11796 z m -30.631381,-6.36033 c 1.275432,-7.6073 4.098,-13.59496 8.21418,-17.42516 1.517153,-1.41174 1.578579,-1.54129 0.95098,-2.00569 l -0.429569,-0.31786 -1.450222,1.50891 c -4.768865,4.96179 -7.765972,11.68753 -8.869765,19.90438 l -0.222886,1.6592 h 0.625012 0.625012 z m 28.196869,1.37602 c -0.954064,-8.4258 -3.718717,-16.29813 -6.91216,-19.68229 l -0.941983,-0.99825 -0.531968,0.39364 -0.531966,0.39363 0.799955,0.74889 c 2.187255,2.04763 4.453141,6.79097 5.526863,11.56977 0.421326,1.8752 1.465722,8.46526 1.465722,9.2486 0,0.15057 0.302869,0.27377 0.673042,0.27377 h 0.673042 z M 43.7822,141.85775 c 1.901399,-7.47765 4.712657,-12.71897 8.744561,-16.30345 l 1.541735,-1.37065 h -8.613134 -8.613135 l -0.540325,1.6592 c -0.713227,2.19014 -1.942439,4.36068 -4.700112,8.29947 -2.490428,3.55707 -2.997083,4.70771 -2.698264,6.12789 l 0.198114,0.94155 0.959392,0.71976 0.959395,0.71977 h 6.279996 6.28 z m 26.812827,-0.28855 c -1.126855,-5.7278 -2.613689,-9.58267 -4.725939,-12.25282 l -0.61915,-0.78267 -1.362098,0.63601 -1.362099,0.63603 -1.941844,0.002 -1.941846,0.002 -1.238499,-0.65212 c -2.40113,-1.26434 -8.632545,8.25054 -8.632545,13.18119 v 0.31262 H 59.78946 70.807912 Z m 24.520421,0.20393 0.984943,-0.87818 -0.14454,-1.50244 -0.144542,-1.50241 -2.531432,-3.75124 c -2.943468,-4.36183 -4.179837,-6.5904 -4.742889,-8.54916 l -0.404172,-1.40605 H 77.776945 67.421073 l 0.852326,0.79353 c 3.102092,2.8881 7.320581,12.65314 7.354724,17.02484 l 0.0051,0.64927 h 9.248658 9.248653 z M 61.315861,128.02519 c -0.30943,-0.0722 -0.891982,-0.0748 -1.294562,-0.006 -0.402581,0.069 -0.149412,0.1281 0.562598,0.13132 0.71201,0.003 1.041394,-0.0533 0.731964,-0.12549 z m 2.180622,-2.37792 c 0.533909,-0.2672 1.296113,-0.99799 1.69379,-1.62397 l 0.723049,-1.13814 0.0054,-1.09359 c 0.003,-0.60147 -0.27092,-1.57636 -0.608554,-2.16644 l -0.613879,-1.07285 -1.357996,-0.68051 -1.357997,-0.6805 -1.691644,0.12509 -1.691646,0.12507 -0.845545,0.55769 c -5.203779,3.43219 0.08932,10.47861 5.745099,7.64815 z m -9.775975,-3.8442 -0.138994,-0.64926 -8.635339,0.0843 c -9.273188,0.0904 -9.44444,0.10448 -9.44444,0.77232 v 0.44189 h 9.178881 9.178883 z m 35.181957,0.0722 v -0.57713 H 78.384141 67.865815 v 0.57713 0.57711 h 10.518326 10.518324 z m -33.905846,-3.62751 0.88554,-1.30081 1.703586,-0.70715 1.703588,-0.70716 1.47375,-0.003 1.473747,-0.003 1.725934,0.76684 1.725931,0.76683 0.84583,1.24702 0.845828,1.24705 10.185829,-0.066 10.18583,-0.066 0.222556,-1.15422 c 0.378661,-1.96383 1.517348,-4.16715 4.36694,-8.44985 4.72232,-7.09726 5.215763,-9.44893 2.313652,-11.026536 l -1.059899,-0.576169 -31.06952,0.0032 -31.069518,0.0032 -0.799388,0.360642 c -3.378103,1.524043 -2.959849,4.029293 1.880737,11.265163 2.798269,4.18293 3.585925,5.70463 4.24652,8.20398 l 0.400407,1.51492 8.463291,-0.008 8.46329,-0.008 z M 99.994446,88.11301 c 3.004124,-4.681257 7.781384,-12.091332 10.616134,-16.466835 5.87549,-9.069001 5.48178,-8.218174 4.0498,-8.751633 -11.52005,-4.291593 -82.070427,-4.802949 -99.985401,-0.7247 -3.30374,0.752078 -5.439088,1.684146 -7.4759165,3.263197 l -1.602304,1.242189 2.1229006,0.629872 c 5.1176329,1.518423 5.4516169,1.927707 21.2766639,26.073691 l 2.032075,3.100553 31.283429,0.07732 c 17.205887,0.04255 31.494287,0.07514 31.751994,0.07253 l 0.468568,-0.0044 z"
     id="path2" /></svg>
